<svg width="5119" height="980" viewBox="0 0 5119 980" fill="none" xmlns="http://www.w3.org/2000/svg">
<g clip-path="url(#clip0_1_35)">
<path d="M1995.5 444.7C2070.5 456.6 2144.2 508.9 2143 586.3C2143 633.9 2122.8 677.9 2085.9 708.8C1956.2 811.2 1726.6 749.3 1723 576.8H1842C1846.8 620.8 1882.5 656.5 1930 655.3C1980 655.3 2024 635.1 2024 586.3C2024 563.7 2010.9 551.8 1989.5 541.1C1909.8 509 1792 510.2 1743.2 430.5C1713.5 377 1737.3 304.4 1784.8 266.3C1824.1 234.2 1875.2 221.1 1930 221.1C2027.6 219.9 2132.3 283 2132.3 380.5H2010.9C1995.4 325.8 1918.1 309.1 1871.7 338.9C1847.9 354.4 1838.4 382.9 1861 400.8C1896.7 429.3 1950.3 437.6 1995.5 444.7Z" fill="white"/>
<path d="M3312.6 349.6C3436.3 346 3544.6 465 3518.4 591.1H3213.8C3242.4 669.6 3345.9 686.3 3394.6 619.7H3511.2C3462.4 764.9 3268.5 804.1 3163.8 698.2C3029.4 566.1 3130.5 348.4 3312.6 349.6ZM3411.3 517.3C3375.6 424.5 3249.5 424.5 3213.8 517.3H3411.3Z" fill="white"/>
<path d="M4034.8 221.1H4141.9V758.8H4034.8V221.1Z" fill="white"/>
<path d="M4500 241.3C4466.7 228.2 4429.8 221.1 4389.4 221.1H4189.5V757.7H4389.4C4432.2 757.7 4470.3 750.6 4503.6 737.5C4605.9 698.2 4663 597.1 4661.8 488.8C4663 380.5 4602.3 280.5 4500 241.3ZM4547.6 489.9C4548.7 574.4 4478.5 651.8 4392.9 650.6H4295.3V329.3H4392.9C4478.6 328.1 4548.8 406.6 4547.6 489.9ZM5047.2 470.9C5131.7 406.7 5086.5 265.1 4994.8 232.9C4974.6 224.6 4953.2 221 4930.6 221H4709.3V757.6C4722.4 757.6 4960.3 757.6 4960.3 757.6C5003.1 757.6 5043.6 742.1 5073.3 713.6C5140.1 649.4 5132.9 518.5 5047.2 470.9ZM4815.2 329.3H4927C4955.6 329.3 4979.3 349.5 4978.2 379.3C4979.4 407.9 4955.6 431.7 4927 430.5H4815.2V329.3ZM4954.4 650.6H4816.4V534H4954.4C4983 532.8 5006.8 564.9 5005.6 593.5C5006.8 620.8 4983 651.8 4954.4 650.6Z" fill="url(#paint0_linear_1_35)"/>
<path d="M2490.4 374.5V548.2C2484.5 689.8 2290.5 689.8 2285.8 548.2C2285.8 532.7 2285.8 359 2285.8 349.5H2178.7V548.2C2178.7 569.6 2182.3 591 2188.2 611.3C2215.6 698.2 2296.5 757.6 2388.1 757.6C2479.7 757.6 2560.6 698.1 2588 611.3C2593.9 591.1 2597.5 569.7 2597.5 548.2V349.6H2490.4V374.5Z" fill="white"/>
<path d="M3987.2 554.2C3987.2 441.2 3894.4 349.6 3779 349.6C3663.6 349.6 3570.8 441.2 3570.8 554.2C3570.8 667.2 3663.5 758.8 3779 758.8C3815.9 758.8 3850.4 749.3 3880.1 732.6V758.8H3987.2V554.2ZM3777.8 660.1C3717.1 660.1 3669.5 612.5 3669.5 553C3669.5 494.7 3718.3 445.9 3777.8 445.9C3838.5 445.9 3886.1 493.5 3886.1 553C3886.1 612.5 3837.2 660.1 3777.8 660.1Z" fill="white"/>
<path d="M2854.5 349.6C2762.9 349.6 2682 409.1 2654.6 495.9C2648.7 516.1 2645.1 537.5 2645.1 559V757.7H2752.2C2752.2 757.7 2752.2 567.4 2752.2 559C2754.6 487.6 2804.6 451.9 2854.5 451.9V349.6Z" fill="white"/>
<path d="M3082.9 349.6C2991.3 349.6 2910.4 409.1 2883 495.9C2877.1 516.1 2873.5 537.5 2873.5 559V757.7H2980.6C2980.6 757.7 2980.6 567.4 2980.6 559C2983 487.6 3032.9 451.9 3082.9 451.9V349.6Z" fill="white"/>
</g>
<g clip-path="url(#clip1_1_35)">
<path d="M121.344 370.789C118.212 370.789 117.429 369.222 118.995 366.871L135.435 345.714C137.001 343.364 140.915 341.797 144.047 341.797H423.529C426.66 341.797 427.443 344.147 425.877 346.498L412.569 366.871C411.003 369.222 407.089 371.572 404.74 371.572L121.344 370.789Z" fill="#00ACD7"/>
<path d="M3.13145 442.877C0 442.877 -0.782863 441.31 0.782863 438.96L17.223 417.803C18.7887 415.452 22.703 413.885 25.8345 413.885H382.82C385.951 413.885 387.517 416.236 386.734 418.587L380.471 437.392C379.688 440.527 376.557 442.094 373.426 442.094L3.13145 442.877Z" fill="#00ACD7"/>
<path d="M192.584 514.966C189.453 514.966 188.67 512.615 190.236 510.265L201.196 490.675C202.762 488.325 205.893 485.974 209.024 485.974H365.597C368.728 485.974 370.294 488.325 370.294 491.459L368.728 510.265C368.728 513.399 365.597 515.75 363.248 515.75L192.584 514.966Z" fill="#00ACD7"/>
<path d="M1005.2 356.684C955.875 369.222 922.212 378.625 873.675 391.162C861.932 394.296 861.149 395.08 850.972 383.326C839.229 370.005 830.617 361.386 814.177 353.55C764.857 329.259 717.102 336.312 672.479 365.304C619.244 399.781 591.844 450.713 592.627 514.183C593.41 576.868 636.467 628.584 698.314 637.203C751.548 644.256 796.171 625.45 831.4 585.488C838.446 576.868 844.709 567.465 852.538 556.495C824.355 556.495 789.126 556.495 701.445 556.495C685.005 556.495 681.091 546.309 686.571 532.988C696.748 508.698 715.537 467.952 726.497 447.579C728.845 442.877 734.325 435.042 746.068 435.042C785.994 435.042 933.172 435.042 1031.03 435.042C1029.46 456.198 1029.46 477.355 1026.33 498.511C1017.72 554.928 996.584 606.644 962.138 652.091C905.772 726.531 832.183 772.761 739.022 785.299C662.302 795.485 591.061 780.597 528.432 733.583C470.501 689.703 437.62 631.718 429.009 559.63C418.832 474.22 443.883 397.43 495.552 330.043C551.135 257.171 624.725 210.94 714.754 194.485C788.343 181.164 858.8 189.784 922.212 232.88C963.704 260.305 993.453 297.917 1013.02 343.364C1017.72 350.416 1014.59 354.334 1005.2 356.684Z" fill="#00ACD7"/>
<path d="M1264.32 790C1193.08 788.433 1128.11 768.06 1073.3 721.046C1027.12 681.083 998.15 630.151 988.756 569.816C974.664 481.272 998.933 402.915 1052.17 333.177C1109.32 257.954 1178.21 218.776 1271.37 202.321C1351.22 188.216 1426.38 196.052 1494.49 242.283C1556.33 284.596 1594.69 341.797 1604.87 417.02C1618.18 522.802 1587.65 608.995 1514.84 682.651C1463.17 735.15 1399.76 768.06 1326.95 782.948C1305.82 786.866 1284.68 787.649 1264.32 790ZM1450.64 473.437C1449.86 463.25 1449.86 455.415 1448.3 447.579C1434.2 370.005 1362.96 326.125 1288.59 343.364C1215.79 359.819 1168.81 406.05 1151.59 479.705C1137.5 540.824 1167.25 602.726 1223.61 627.801C1266.67 646.606 1309.73 644.256 1351.22 623.099C1413.07 590.973 1446.73 540.824 1450.64 473.437Z" fill="#00ACD7"/>
</g>
<defs>
<linearGradient id="paint0_linear_1_35" x1="4386.83" y1="107.173" x2="4823.24" y2="863.062" gradientUnits="userSpaceOnUse">
<stop stop-color="#FF00A0"/>
<stop offset="1" stop-color="#9600FF"/>
</linearGradient>
<clipPath id="clip0_1_35">
<rect width="4556.1" height="979.9" fill="white" transform="translate(562)"/>
</clipPath>
<clipPath id="clip1_1_35">
<rect width="1608" height="601" fill="white" transform="translate(0 189)"/>
</clipPath>
</defs>
</svg>
